<?xml version="1.0" encoding="utf-8"?>
<!-- Generator: Adobe Illustrator 18.0.0, SVG Export Plug-In . SVG Version: 6.00 Build 0)  -->
<!DOCTYPE svg PUBLIC "-//W3C//DTD SVG 1.1//EN" "http://www.w3.org/Graphics/SVG/1.1/DTD/svg11.dtd">
<svg version="1.1" id="Capa_1" xmlns="http://www.w3.org/2000/svg" xmlns:xlink="http://www.w3.org/1999/xlink" x="0px" y="0px"
	 viewBox="0 0 512 106.2" enable-background="new 0 0 512 106.2" xml:space="preserve">
<g>
	<path fill="#2A1859" d="M199.8,30.1L192,33c-3.1-5.4-8.6-8.7-15.2-8.7c-5,0-9.2,1.7-12.6,5.2c-3.4,3.5-5.1,7.8-5.1,13
		s1.7,9.5,5.1,13c3.4,3.5,7.6,5.2,12.6,5.2c6.6,0,12.1-3.4,15.2-8.7l7.8,2.9c-4.4,8.3-12.9,13.6-23,13.6c-7.3,0-13.6-2.5-18.5-7.4
		c-4.9-4.9-7.4-11.1-7.4-18.5s2.5-13.6,7.4-18.5c4.9-4.9,11.1-7.4,18.5-7.4C186.9,16.6,195.5,21.8,199.8,30.1z"/>
	<path fill="#2A1859" d="M214.5,35.8c2.8-4.2,7.1-6.4,13.2-6.4v8.3c-0.8-0.4-1.9-0.6-3.2-0.6c-2.8,0-5.2,0.9-7.1,2.8
		c-1.9,1.8-2.9,4.1-2.9,6.8v20.7h-7.4V30.4h7.4V35.8z"/>
	<path fill="#2A1859" d="M237.8,51.6c1.1,5.8,6.1,9.8,12.3,9.8c4.2,0,7.5-1.6,9.8-4.6l7.3,2.2c-3.4,5.8-9.7,9.3-17.1,9.3
		c-5.6,0-10.4-1.9-14.2-5.6c-3.8-3.7-5.7-8.3-5.7-13.9c0-5.6,1.9-10.2,5.5-13.9c3.7-3.7,8.3-5.6,13.8-5.6c5.5,0,10.1,1.9,13.7,5.6
		c3.7,3.7,5.6,8.3,5.6,13.9c0,0.6-0.1,1.5-0.1,2.7H237.8z M261.2,45.7c-1.4-5.5-6.1-9.3-11.8-9.3c-5.4,0-10.1,3.9-11.4,9.3H261.2z"
		/>
	<path fill="#2A1859" d="M304.3,34.4V14h7.4v53.5h-7.4v-4c-3.4,3.3-7.6,4.9-12.3,4.9c-5.2,0-9.6-1.9-13.1-5.6
		c-3.5-3.7-5.2-8.3-5.2-13.9c0-5.6,1.7-10.2,5.2-13.9c3.5-3.7,7.8-5.6,13.1-5.6C296.8,29.4,300.9,31.1,304.3,34.4z M284.7,40.4
		c-2.2,2.3-3.3,5.1-3.3,8.6c0,3.4,1.1,6.3,3.3,8.6c2.2,2.3,4.9,3.4,8.1,3.4c3.2,0,5.9-1.1,8.1-3.4c2.2-2.4,3.3-5.2,3.3-8.6
		c0-3.4-1.1-6.3-3.3-8.6c-2.2-2.4-4.9-3.5-8.1-3.5C289.6,36.9,286.9,38,284.7,40.4z"/>
	<path fill="#2A1859" d="M320.8,17.9c1.9-1.9,5.1-1.9,7,0c1.9,1.9,1.9,5.1,0,7c-1.9,1.9-5.1,1.9-7,0C319,22.9,319,19.8,320.8,17.9z
		 M320.6,67.5V30.4h7.4v37.1H320.6z"/>
	<path fill="#2A1859" d="M346.7,30.4h9.4v6.5h-9.4v30.6h-7.4V36.9h-5.9v-6.5h5.9v-5.1c0-3.2,1.1-5.9,3.4-8.1
		c2.3-2.2,5.1-3.3,8.4-3.3h5v7.1h-4.4c-2.9,0-5,2.3-5,5.2V30.4z"/>
	<path fill="#2A1859" d="M389.5,34.4v-4h7.4v37.1h-7.4v-4c-3.4,3.3-7.6,4.9-12.3,4.9c-5.2,0-9.6-1.9-13.1-5.6
		c-3.5-3.7-5.2-8.3-5.2-13.9c0-5.6,1.7-10.2,5.2-13.9c3.5-3.7,7.8-5.6,13.1-5.6C382,29.4,386.1,31.1,389.5,34.4z M369.9,40.4
		c-2.2,2.3-3.3,5.1-3.3,8.6c0,3.4,1.1,6.3,3.3,8.6c2.2,2.3,4.9,3.4,8.1,3.4c3.2,0,5.9-1.1,8.1-3.4c2.2-2.4,3.3-5.2,3.3-8.6
		c0-3.4-1.1-6.3-3.3-8.6c-2.2-2.4-4.9-3.5-8.1-3.5C374.8,36.9,372.1,38,369.9,40.4z"/>
	<path fill="#2A1859" d="M405.8,67.5V30.4h7.4v4.7c2.6-3.8,6.4-5.6,11.3-5.6c5.2,0,9.6,2.5,12.1,6.6c0.6-0.9,1.3-1.9,2.1-2.7
		c1.7-1.7,5.8-3.9,10.4-3.9c4.2,0,7.7,1.3,10.5,3.9c2.8,2.6,4.2,5.9,4.2,9.8v24.3h-7.4V45.3c0-4.9-3.8-8.8-8.7-8.8
		c-2.6,0-4.8,0.9-6.6,2.6c-1.7,1.6-2.6,3.8-2.6,6.3v22.1h-7.4V45.3c0-4.9-3.8-8.8-8.7-8.8c-2.6,0-4.8,0.9-6.6,2.6
		c-1.8,1.6-2.6,3.8-2.6,6.3v22.1H405.8z"/>
	<path fill="#2A1859" d="M501.6,34.4v-4h7.4v37.1h-7.4v-4c-3.4,3.3-7.6,4.9-12.3,4.9c-5.2,0-9.6-1.9-13.1-5.6
		c-3.5-3.7-5.2-8.3-5.2-13.9c0-5.6,1.7-10.2,5.2-13.9c3.5-3.7,7.8-5.6,13.1-5.6C494.1,29.4,498.2,31.1,501.6,34.4z M482,40.4
		c-2.2,2.3-3.3,5.1-3.3,8.6c0,3.4,1.1,6.3,3.3,8.6c2.2,2.3,4.9,3.4,8.1,3.4c3.2,0,5.9-1.1,8.1-3.4c2.2-2.4,3.3-5.2,3.3-8.6
		c0-3.4-1.1-6.3-3.3-8.6c-2.2-2.4-4.9-3.5-8.1-3.5C486.9,36.9,484.2,38,482,40.4z"/>
</g>
<g id="XMLID_1_">
	<g id="XMLID_2_">
		<path id="XMLID_3_" fill="#2A1859" d="M67.7,3.7C34.2,3.7,5.9,29.8,3.4,63.2c-0.2,2.2,1.5,4.1,3.7,4.3c2.2,0.2,4.1-1.5,4.3-3.7
			c2.2-29.3,27-52.2,56.4-52.2c29.8,0,54.5,23.2,56.4,52.9c0.1,1.1,0.5,2.1,1.3,2.8c0.8,0.7,1.8,1,2.9,1c2.2-0.1,3.9-2,3.7-4.2
			C130,30.2,101.7,3.7,67.7,3.7z"/>
	</g>
</g>
<polygon fill="#F2E74B" points="32.3,77.7 57,80.6 67.1,46.4 44.8,35.5 49.7,59.8 "/>
<polygon fill="#2A1859" points="57,80.6 67.1,46.4 88.8,34.2 85.2,58.9 "/>
<polygon fill="#05F29B" points="68.6,102.5 79,80 103.5,75.7 85.2,58.9 57,80.6 "/>
</svg>
